<svg width="35" height="35" viewBox="0 0 35 35" fill="none" xmlns="http://www.w3.org/2000/svg">
<path d="M20.7571 4.14337L20.416 3.66559C18.9868 1.66485 16.0133 1.66485 14.5841 3.66559L14.243 4.14337C13.4884 5.19972 12.2215 5.76539 10.9313 5.62202L9.41014 5.45301C7.12786 5.19942 5.19942 7.12786 5.45301 9.41014L5.62202 10.9313C5.76539 12.2215 5.19972 13.4884 4.14337 14.243L3.66559 14.5841C1.66485 16.0133 1.66485 18.9868 3.66559 20.416L4.14337 20.7571C5.19972 21.5118 5.76539 22.7786 5.62202 24.0688L5.45301 25.59C5.19942 27.8722 7.12786 29.8007 9.41014 29.547L10.9313 29.3781C12.2215 29.2347 13.4884 29.8004 14.243 30.8567L14.5841 31.3344C16.0133 33.3351 18.9868 33.3351 20.416 31.3344L20.7571 30.8567C21.5118 29.8004 22.7786 29.2347 24.0688 29.3781L25.59 29.547C27.8722 29.8007 29.8007 27.8722 29.547 25.59L29.3781 24.0688C29.2347 22.7786 29.8004 21.5118 30.8567 20.7571L31.3344 20.416C33.3351 18.9868 33.3351 16.0133 31.3344 14.5841L30.8567 14.243C29.8004 13.4884 29.2347 12.2215 29.3781 10.9313L29.547 9.41014C29.8007 7.12786 27.8722 5.19942 25.59 5.45301L24.0688 5.62202C22.7786 5.76539 21.5118 5.19972 20.7571 4.14337Z" stroke="#323232" stroke-width="3.136" stroke-linecap="round" stroke-linejoin="round"/>
<path d="M12.125 17.5001L15.3839 20.7589C15.563 20.9381 15.8536 20.9381 16.0328 20.7589L22.875 13.9167" stroke="#323232" stroke-width="3.136" stroke-linecap="round" stroke-linejoin="round"/>
</svg>
