<svg width="28" height="34" viewBox="0 0 28 34" fill="none" xmlns="http://www.w3.org/2000/svg">
<path fill-rule="evenodd" clip-rule="evenodd" d="M2 0.5C1.17158 0.5 0.5 1.17158 0.5 2V32C0.5 32.8285 1.17158 33.5 2 33.5C2.82842 33.5 3.5 32.8285 3.5 32V19.3975C4.19903 19.0495 5.30409 18.5644 6.48876 18.2683C8.61366 17.7371 10.319 17.9332 11.252 19.3325C12.9935 21.9446 16.3193 22.1747 18.8789 21.9197C21.5799 21.6506 24.2522 20.7661 25.6031 20.2664C26.79 19.8275 27.5 18.7004 27.5 17.5112V7.58506C27.5 5.25796 25.0367 3.89936 23.0734 4.78972C21.4813 5.51177 19.3661 6.31813 17.4546 6.58445C15.4548 6.86311 14.2934 6.48605 13.748 5.66816C11.7801 2.71644 8.41337 2.36699 6.00041 2.56807C5.0741 2.64527 4.21338 2.80724 3.5 2.97874V2C3.5 1.17158 2.82842 0.5 2 0.5ZM3.5 6.08161V16.1071C4.16124 15.8371 4.93424 15.5645 5.76121 15.3578C8.13631 14.7641 11.681 14.5681 13.748 17.6683C14.4659 18.7451 16.1203 19.1797 18.5815 18.9346C20.8637 18.7072 23.2133 17.9482 24.5 17.4758V7.58506C24.5 7.51691 24.3622 7.49935 24.3125 7.52189C22.6363 8.28206 20.2094 9.22958 17.8686 9.55574C15.6164 9.86959 12.8156 9.67775 11.252 7.33232C10.2198 5.78426 8.3366 5.38379 6.24956 5.5577C5.18608 5.64634 4.1964 5.87939 3.5 6.08161Z" fill="#0F0F0F" stroke="black" stroke-width="0.00064"/>
</svg>
