<svg width="34" height="34" viewBox="0 0 34 34" fill="none" xmlns="http://www.w3.org/2000/svg">
<path fill-rule="evenodd" clip-rule="evenodd" d="M30.75 17C30.75 24.5939 24.5939 30.75 17 30.75C9.40608 30.75 3.25 24.5939 3.25 17C3.25 9.40608 9.40608 3.25 17 3.25C24.5939 3.25 30.75 9.40608 30.75 17ZM33.5 17C33.5 26.1128 26.1128 33.5 17 33.5C7.88731 33.5 0.5 26.1128 0.5 17C0.5 7.88731 7.88731 0.5 17 0.5C26.1128 0.5 33.5 7.88731 33.5 17ZM12.1875 14.25C13.3266 14.25 14.25 13.3266 14.25 12.1875C14.25 11.0484 13.3266 10.125 12.1875 10.125C11.0484 10.125 10.125 11.0484 10.125 12.1875C10.125 13.3266 11.0484 14.25 12.1875 14.25ZM23.875 12.1875C23.875 13.3266 22.9515 14.25 21.8125 14.25C20.6735 14.25 19.75 13.3266 19.75 12.1875C19.75 11.0484 20.6735 10.125 21.8125 10.125C22.9515 10.125 23.875 11.0484 23.875 12.1875ZM17 22.5C13.6602 22.5 11.5 20.3827 11.5 18.375H8.75C8.75 22.4424 12.7458 25.25 17 25.25C21.2542 25.25 25.25 22.4424 25.25 18.375H22.5C22.5 20.3827 20.3398 22.5 17 22.5Z" fill="black" stroke="black" stroke-width="0.00064"/>
</svg>
