<svg width="146" height="144" viewBox="0 0 146 144" fill="none" xmlns="http://www.w3.org/2000/svg">
<path d="M87.1913 23.1179L88.0399 23.6833L89.0077 23.3611C100.379 19.5709 111.737 20.4961 123.205 26.2302C126.788 28.0216 128.792 30.3476 129.59 33.1404C130.409 36.0073 130.062 39.7296 128.167 44.4685L127.936 45.0437L128.058 45.6521C131.97 65.2118 136.852 81.9605 142.72 95.8728L134.203 112.908L133.983 113.348V113.841C133.983 124.643 130.592 133.639 123.841 140.961L107.399 130.001L106.551 129.435L105.584 129.758C99.6189 131.746 93.6534 133.734 87.6884 135.722L70.453 141.468L53.2177 135.722L52.5575 135.503L51.8983 135.722C40.7801 139.428 29.6272 137.687 18.2645 130.222L6.64832 112.798C1.05114 101.525 1.01347 89.2857 6.75476 75.8894L6.83972 75.6892L6.88269 75.4763L12.8475 45.6521L12.9686 45.0437L12.7391 44.4685C10.8436 39.7296 10.4973 36.0073 11.3163 33.1404C12.1142 30.3477 14.1175 28.0215 17.7001 26.2302C29.1687 20.4959 40.5273 19.5708 51.8983 23.3611L52.8661 23.6833L53.7147 23.1179L70.453 11.9578L87.1913 23.1179Z" fill="white" stroke="black" stroke-width="4.17"/>
<path d="M70.4524 2.59058C75.1404 2.59058 79.2821 3.54499 82.1741 4.99097C85.1906 6.49923 86.2628 8.19732 86.2629 9.45288C86.2629 10.7085 85.1907 12.4064 82.1741 13.9148C79.2821 15.3608 75.1405 16.3152 70.4524 16.3152C65.7645 16.3151 61.6236 15.3607 58.7317 13.9148C55.715 12.4064 54.6428 10.7085 54.6428 9.45288C54.643 8.19732 55.7152 6.49923 58.7317 4.99097C61.6236 3.54505 65.7646 2.59064 70.4524 2.59058Z" fill="white" stroke="black" stroke-width="4.17"/>
<path d="M40.6279 54.1903C48.5813 48.2253 56.5346 48.2253 64.4879 54.1903Z" fill="white"/>
<path d="M40.6279 54.1903C48.5813 48.2253 56.5346 48.2253 64.4879 54.1903" stroke="black" stroke-width="8.34"/>
<path d="M76.4178 54.1903C84.3712 48.2253 92.3245 48.2253 100.278 54.1903Z" fill="white"/>
<path d="M76.4178 54.1903C84.3712 48.2253 92.3245 48.2253 100.278 54.1903" stroke="black" stroke-width="8.34"/>
<path d="M64.4879 66.1204C68.4646 62.1438 72.4412 62.1438 76.4179 66.1204Z" fill="white"/>
<path d="M64.4879 66.1204C68.4646 62.1438 72.4412 62.1438 76.4179 66.1204" stroke="black" stroke-width="6.255"/>
<path d="M46.5929 84.0154C62.4996 91.9687 78.4062 91.9687 94.3129 84.0154Z" fill="white"/>
<path d="M46.5929 84.0154C62.4996 91.9687 78.4062 91.9687 94.3129 84.0154" stroke="black" stroke-width="8.34"/>
<path d="M34.6628 113.841C58.5228 121.794 82.3828 121.794 106.243 113.841Z" fill="white"/>
<path d="M34.6628 113.841C58.5228 121.794 82.3828 121.794 106.243 113.841" stroke="black" stroke-width="8.34"/>
</svg>
