<svg width="213" height="213" viewBox="0 0 213 213" fill="none" xmlns="http://www.w3.org/2000/svg">
<rect x="2" y="2" width="209" height="209" rx="104.5" fill="#333E2F" stroke="black" stroke-width="4"/>
<path d="M123.827 53.6123L124.676 54.1777L125.644 53.8555C137.014 50.0653 148.372 50.9905 159.841 56.7246C163.423 58.5159 165.428 60.842 166.226 63.6348C167.045 66.5017 166.698 70.224 164.803 74.9629L164.572 75.5381L164.694 76.1465C168.606 95.7062 173.488 112.455 179.355 126.367L170.839 143.402L170.619 143.843V144.335C170.619 155.137 167.228 164.133 160.477 171.455L144.035 160.495L143.187 159.93L142.22 160.252C130.51 164.155 118.799 168.059 107.089 171.962L89.8535 166.217L89.1934 165.997L88.5342 166.217C77.416 169.923 66.2631 168.181 54.9004 160.717L43.2842 143.292C37.687 132.019 37.6493 119.78 43.3906 106.384L43.4756 106.184L43.5186 105.971L49.4834 76.1465L49.6045 75.5381L49.375 74.9629C47.4794 70.224 47.1331 66.5017 47.9521 63.6348C48.7501 60.8421 50.7534 58.5159 54.3359 56.7246C65.8046 50.9903 77.1631 50.0652 88.5342 53.8555L89.502 54.1777L90.3506 53.6123L107.089 42.4521L123.827 53.6123Z" fill="white" stroke="black" stroke-width="4.17"/>
<path d="M107.088 33.085C111.776 33.085 115.918 34.0394 118.81 35.4854C121.826 36.9936 122.899 38.6917 122.899 39.9473C122.899 41.2028 121.827 42.9008 118.81 44.4092C115.918 45.8552 111.776 46.8096 107.088 46.8096C102.4 46.8095 98.2595 45.8551 95.3676 44.4092C92.3509 42.9008 91.2787 41.2028 91.2787 39.9473C91.2788 38.6917 92.351 36.9936 95.3676 35.4854C98.2595 34.0394 102.4 33.085 107.088 33.085Z" fill="white" stroke="black" stroke-width="4.17"/>
<path d="M77.2638 84.6847C85.2171 78.7197 93.1705 78.7197 101.124 84.6847H77.2638Z" fill="white"/>
<path d="M77.2638 84.6847C85.2171 78.7197 93.1705 78.7197 101.124 84.6847" stroke="black" stroke-width="8.34"/>
<path d="M113.054 84.6847C121.007 78.7197 128.96 78.7197 136.914 84.6847H113.054Z" fill="white"/>
<path d="M113.054 84.6847C121.007 78.7197 128.96 78.7197 136.914 84.6847" stroke="black" stroke-width="8.34"/>
<path d="M101.124 96.6148C105.1 92.6382 109.077 92.6382 113.054 96.6148H101.124Z" fill="white"/>
<path d="M101.124 96.6148C105.1 92.6382 109.077 92.6382 113.054 96.6148" stroke="black" stroke-width="6.255"/>
<path d="M83.2288 114.51C99.1354 122.463 115.042 122.463 130.949 114.51H83.2288Z" fill="white"/>
<path d="M83.2288 114.51C99.1354 122.463 115.042 122.463 130.949 114.51" stroke="black" stroke-width="8.34"/>
<path d="M71.2988 144.335C95.1588 152.288 119.019 152.288 142.879 144.335H71.2988Z" fill="white"/>
<path d="M71.2988 144.335C95.1588 152.288 119.019 152.288 142.879 144.335" stroke="black" stroke-width="8.34"/>
</svg>
